<?xml version="1.0" encoding="utf-8"?>
<!-- Generator: Adobe Illustrator 14.0.0, SVG Export Plug-In . SVG Version: 6.00 Build 43363)  -->
<!DOCTYPE svg PUBLIC "-//W3C//DTD SVG 1.0//EN" "http://www.w3.org/TR/2001/REC-SVG-20010904/DTD/svg10.dtd">
<svg version="1.0" id="Ebene_1" xmlns="http://www.w3.org/2000/svg" xmlns:xlink="http://www.w3.org/1999/xlink" x="0px" y="0px"
	 width="327.809px" height="88.451px" viewBox="0 0 327.809 88.451" style="enable-background:new 0 0 327.809 88.451;"
	 xml:space="preserve">
<g>
	<path d="M4.393,76.429L29.811,8.527c0.216-0.504,0.504-1.8,1.296-1.8c0.288,0,0.72,0.288,0.72,0.864
		c0,0.288-0.144,0.648-0.216,0.936L6.121,76.501c-0.576,1.584-0.792,1.944-1.368,1.944c-0.432,0-0.648-0.432-0.648-0.864
		C4.104,77.365,4.104,77.221,4.393,76.429z"/>
	<path d="M38.376,29.553h5.689v-8.281c0-7.633,6.12-11.449,11.161-11.449c3.816,0,6.48,2.376,6.48,5.04
		c0,1.729-1.08,3.168-3.168,3.168c-1.944,0-3.096-1.44-3.096-3.096c0-1.8,1.296-2.736,2.16-3.024
		c-1.08-0.504-2.16-0.504-2.376-0.504c-3.168,0-6.625,3.456-6.625,9.793v8.353h8.425v2.232h-8.209v23.186
		c0,2.592,0.144,3.384,5.473,3.384h1.512v2.232c-2.88-0.216-6.265-0.216-9.145-0.216c-2.016,0-5.4,0.144-8.208,0.216v-2.232
		c4.824,0,5.617,0,5.617-3.24v-23.33h-5.689V29.553z"/>
	<path d="M61.128,46.186h20.738c0-3.744-0.216-7.632-2.232-10.873c-1.44-2.16-4.176-4.68-8.137-4.68
		c-2.952,0-7.705,1.584-9.793,6.553c-0.432,1.08-0.504,1.728-1.368,1.728c-0.36,0-0.72-0.36-0.72-0.792
		c0-1.224,1.44-4.464,4.536-6.769c1.944-1.44,4.537-2.521,7.777-2.521c8.281,0,15.914,6.841,15.914,16.562
		c0,8.569-6.265,16.346-15.049,16.346c-10.657,0-13.321-8.785-13.321-13.969C59.472,46.258,60.192,46.186,61.128,46.186z
		 M72.865,60.083c3.528,0,8.497-2.88,8.929-12.313H64.296C64.44,57.851,69.48,60.083,72.865,60.083z"/>
	<path d="M96.767,12.415c0-1.008,0.144-1.8,1.08-1.8c1.008,0,1.224,0.648,1.224,1.656v12.458c0,1.008-0.144,1.8-1.081,1.8
		c-1.008,0-1.224-0.72-1.224-1.728V12.415z"/>
	<path d="M108.213,58.355c4.824,0,5.617,0,5.617-3.24V35.817c0-3.528-0.576-4.033-5.617-4.033v-2.232l10.153-0.792v7.561
		c2.016-4.464,5.4-7.561,10.657-7.561c4.177,0,6.553,1.44,7.561,2.664c2.232,2.592,2.232,4.825,2.232,11.017v13.753
		c0.072,2.16,1.872,2.16,5.617,2.16v2.232c-2.448-0.072-6.193-0.216-8.065-0.216c-1.944,0-5.616,0.144-8.137,0.216v-2.232
		c4.825,0,5.617,0,5.617-3.24V38.337c0-4.104-0.792-7.993-5.329-7.993c-4.608,0-9.721,4.032-9.721,11.521v13.249
		c0,3.24,0.792,3.24,5.616,3.24v2.232c-2.448-0.072-6.192-0.216-8.064-0.216c-1.944,0-5.617,0.144-8.137,0.216V58.355z"/>
	<path d="M156.166,43.378c-2.16-0.72-7.057-2.808-7.057-7.057c0-2.376,1.224-4.68,3.168-5.977c1.656-0.936,3.96-1.944,9.865-1.944
		c10.729,0,13.249,4.537,13.249,7.561c0,2.736-2.16,3.456-3.312,3.456c-1.944,0-3.24-1.512-3.24-3.312
		c0-1.584,1.08-3.097,3.312-3.313c-1.44-1.152-3.888-2.736-9.793-2.736c-4.104,0-7.632,1.296-7.632,6.409
		c0,5.041,3.816,6.265,7.993,6.265h2.448c1.224,0,1.656,0.36,1.656,0.792c0,0.72-0.864,0.792-1.656,0.792h-1.944
		c-7.849,0-9.145,4.537-9.145,7.489c0,6.121,6.049,7.705,9.217,7.705c3.384,0,7.633-1.728,9.793-5.544
		c0.648-1.152,0.792-2.016,1.368-2.521c0.432-0.36,1.224-0.072,1.224,0.648c0,1.8-3.313,9.289-13.393,9.289
		c-11.521,0-14.042-5.688-14.042-9.433C148.245,50.002,148.893,45.394,156.166,43.378z"/>
	<path d="M179.204,30.201c7.057-0.288,9.217-7.993,9.289-13.897h1.8v13.249h10.297v2.232h-10.297v20.018
		c0,1.224,0,7.776,4.824,7.776c2.665,0,4.825-2.736,4.825-8.064v-3.96h1.8v4.104c0,4.608-2.017,9.721-7.129,9.721
		c-2.592,0-9.289-0.864-9.289-9.721V31.785h-6.121V30.201z"/>
	<path d="M207.931,58.859h0.504c3.96,0,4.681-0.576,4.681-3.313V34.593c0-2.736-0.72-3.24-4.752-3.24h-0.432v-1.729
		c2.664,0.072,5.329,0.144,7.993,0.144c1.512,0,3.744,0,7.417-0.144v1.729h-0.504c-4.032,0-4.68,0.504-4.68,3.312v20.882
		c0,2.665,0.576,3.313,4.608,3.313h0.576v1.728c-2.52-0.144-5.112-0.216-7.632-0.216c-2.592,0-5.185,0.072-7.777,0.216V58.859z"/>
	<path d="M227.514,58.355c4.825,0,5.617,0,5.617-3.24V17.672c0-3.528-0.576-4.033-5.617-4.033v-2.232l10.369-0.792v34.563
		l10.153-8.785c0.576-0.504,1.584-1.368,1.584-2.808c0-0.936-0.72-1.728-2.088-1.8v-2.232c1.008,0.072,5.473,0.216,8.064,0.216
		c2.017,0,2.952,0,5.04-0.216v2.232c-1.512,0.072-4.536,0.216-9.072,3.889c-0.721,0.576-5.833,4.896-5.833,5.185
		c0,0.216,0.36,0.648,0.433,0.792l9.145,12.889c2.736,3.816,4.32,3.816,6.984,3.816v2.232c-2.088-0.144-4.176-0.216-6.265-0.216
		c-1.512,0-5.76,0.144-7.776,0.216v-2.232c1.368,0,2.592-0.288,2.592-1.656c0-1.296-3.023-5.329-8.568-12.961l-4.608,3.96v7.417
		c0,3.24,0.792,3.24,5.617,3.24v2.232c-2.88-0.144-5.761-0.216-7.921-0.216c-2.088,0-5.472,0.144-7.849,0.216V58.355z"/>
	<path d="M265.817,50.146c0-1.296,0-1.8,0.937-1.8c0.72,0,0.792,0.288,1.008,1.224c1.368,6.121,3.96,10.225,10.009,10.225
		c5.616,0,8.137-2.88,8.137-6.553c0-5.185-5.904-6.336-7.488-6.625c-5.185-1.008-7.201-1.44-9.505-3.312
		c-1.944-1.584-3.097-3.601-3.097-6.121c0-4.033,2.736-8.857,11.521-8.857c1.08,0,4.032,0,6.769,2.016
		c0.288-0.216,1.008-0.864,1.224-1.152c0.937-0.864,1.08-0.864,1.44-0.864c0.792,0,0.792,0.504,0.792,1.728v7.273
		c0,1.368,0,1.728-0.937,1.728c-0.144,0-0.792,0-0.863-0.648c-0.145-2.232-0.504-8.713-8.425-8.713
		c-6.192,0-8.065,2.952-8.065,5.473c0,4.176,4.825,5.112,8.857,5.904c3.024,0.576,5.832,1.152,8.209,3.456
		c0.863,0.864,3.023,3.024,3.023,6.841c0,5.185-3.312,10.009-11.593,10.009c-1.512,0-4.752-0.072-7.921-3.096
		c-1.296,1.368-1.296,1.512-1.439,1.656c-1.368,1.368-1.44,1.44-1.801,1.44c-0.792,0-0.792-0.504-0.792-1.728V50.146z"/>
	<path d="M296.202,76.429L321.62,8.527c0.216-0.504,0.504-1.8,1.296-1.8c0.288,0,0.721,0.288,0.721,0.864
		c0,0.288-0.145,0.648-0.217,0.936l-25.49,67.974c-0.575,1.584-0.792,1.944-1.368,1.944c-0.432,0-0.647-0.432-0.647-0.864
		C295.914,77.365,295.914,77.221,296.202,76.429z"/>
</g>
</svg>
